<svg xmlns="http://www.w3.org/2000/svg" xmlns:xlink="http://www.w3.org/1999/xlink" width="25.421" height="18.07" viewBox="0 0 25.421 18.07"><defs><clipPath id="a"><rect width="25.421" height="18.07" fill="#fff"/></clipPath></defs><g clip-path="url(#a)"><path d="M23.542.026A2.163,2.163,0,0,0,23.277,0H2.16l10.7,11.37Zm1.566,1.017L13.532,13.34a.918.918,0,0,1-1.338,0L.442.855A2.154,2.154,0,0,0,0,2.144V15.926A2.143,2.143,0,0,0,2.144,18.07H23.277a2.143,2.143,0,0,0,2.144-2.144V2.144a2.144,2.144,0,0,0-.314-1.1" transform="translate(0)" fill="#fff"/></g></svg>