<svg xmlns="http://www.w3.org/2000/svg" width="121.921" height="52" viewBox="0 0 121.921 52"><g transform="translate(7018 8379)"><path d="M120.306,15.921c-.015.208-.035.358-.035.508q.006,7.394.016,14.789,0,5.493,0,10.986a2.445,2.445,0,0,1-.056.531.736.736,0,0,1-.747.6c-.128.009-.256.008-.384.008h-5.728c-.761.043-1.107-.292-1.106-1.1q.02-15.5.011-31c0-.384,0-.77.027-1.152a5.629,5.629,0,0,1,1.323-3.168,7.045,7.045,0,0,1,1.495-1.308,3.346,3.346,0,0,1,.786-.4,5.327,5.327,0,0,1,1.739-.448c.615,0,1.23-.018,1.844,0a6.371,6.371,0,0,1,2.285.6,6.981,6.981,0,0,1,2.443,1.751,6.655,6.655,0,0,1,1.347,2.211c.283.766.6,1.521.89,2.283.161.418.3.842.464,1.26.181.477.376.949.556,1.427.293.778.575,1.56.867,2.339.2.526.407,1.047.609,1.572.156.405.305.813.461,1.218.2.524.409,1.044.607,1.57.265.705.521,1.414.786,2.12.337.9.68,1.794,1.017,2.693.162.431.308.867.474,1.3.183.475.38.946.571,1.418.029.071.059.141.086.213.19.514.383,1.027.569,1.543.074.2.132.414.2.621a.653.653,0,0,0,.454.519c.17-.111.126-.291.126-.449,0-.525-.017-1.05-.017-1.574q0-11.755,0-23.509a1.373,1.373,0,0,1,.148-.779.682.682,0,0,1,.52-.349,1.937,1.937,0,0,1,.23-.017q3.114,0,6.228,0a.762.762,0,0,1,.676.295,1.077,1.077,0,0,1,.191.442,4.8,4.8,0,0,1,.013.69q0,18.054,0,36.108c0,.128,0,.257-.008.384a.642.642,0,0,1-.658.663,2.408,2.408,0,0,1-.269.007c-2.653,0-5.305,0-7.958-.008a5.674,5.674,0,0,1-1.218-.128,3.364,3.364,0,0,1-2.052-1.5,7.063,7.063,0,0,1-.7-1.609c-.171-.467-.355-.931-.528-1.4-.161-.431-.316-.864-.473-1.3q-.545-1.5-1.09-2.991c-.33-.9-.667-1.8-.993-2.7-.413-1.141-.816-2.286-1.23-3.427-.2-.54-.415-1.073-.611-1.613-.279-.768-.539-1.543-.819-2.311-.263-.72-.545-1.433-.811-2.153-.195-.528-.373-1.062-.563-1.591-.177-.493-.36-.985-.54-1.477-.188-.516-.381-1.031-.562-1.55-.138-.4-.261-.8-.393-1.2a.72.72,0,0,0-.506-.465" transform="translate(-7110.936 -8382.933)" fill="#333"/><path d="M458.6,24c0-4.34.011-8.68-.008-13.02a14.333,14.333,0,0,1,.372-3.389,8.842,8.842,0,0,1,1.218-2.842,10.115,10.115,0,0,1,1.226-1.518A8.787,8.787,0,0,1,463.12,1.89a15.247,15.247,0,0,1,1.891-.923,8.69,8.69,0,0,1,1.312-.425,18.864,18.864,0,0,1,6.328-.46,15.953,15.953,0,0,1,2.559.493,10.49,10.49,0,0,1,2.659,1.076A9.7,9.7,0,0,1,480.693,4.1a8.948,8.948,0,0,1,1.259,2.134,9.621,9.621,0,0,1,.687,2.864c.046.573.073,1.15.073,1.725q.007,13.635,0,27.27c0,.128,0,.256,0,.384.007.638-.364.961-.994,1.046a3.225,3.225,0,0,1-.422.01h-5.151c-.128,0-.256,0-.384-.006a1.09,1.09,0,0,1-1.11-1.157c.015-2.509.005-5.019.006-7.528,0-.822-.014-.836-.838-.836h-6.535a2.428,2.428,0,0,0-.307.011.356.356,0,0,0-.332.32,2.576,2.576,0,0,0-.019.383c0,2.5-.017,4.993.01,7.49a1.152,1.152,0,0,1-1.321,1.331c-1.794-.022-3.588,0-5.381-.011a2.3,2.3,0,0,1-.675-.108.926.926,0,0,1-.655-.9c-.015-.217-.006-.435-.006-.653q0-6.933,0-13.866m8.029-7.936h0q0,2.65,0,5.3c0,.472.1.579.551.58q3.478,0,6.956,0c.429,0,.522-.1.522-.523,0-3.456-.01-6.913,0-10.369a3.341,3.341,0,0,0-1.585-2.782,4.364,4.364,0,0,0-3.863-.512,3.414,3.414,0,0,0-1.6.943,3.139,3.139,0,0,0-.982,2.334c0,.09,0,.179,0,.269v4.762" transform="translate(-7397.627 -8379)" fill="#333"/><path d="M306.312,23.861c0-4.4-.008-8.807.007-13.211a20.237,20.237,0,0,1,.166-2.411,8.879,8.879,0,0,1,.569-2.064,9.5,9.5,0,0,1,.737-1.471,7,7,0,0,1,1.341-1.663,20.9,20.9,0,0,1,1.645-1.312,5.405,5.405,0,0,1,.982-.515c.443-.2.9-.366,1.348-.546A.918.918,0,0,1,313.286.6c.769-.129,1.5-.4,2.29-.477a20.91,20.91,0,0,1,4.448.024c.354.043.7.137,1.051.211.1.021.2.06.3.078A10.077,10.077,0,0,1,324.2,1.48a8.978,8.978,0,0,1,3.169,2.726,9.1,9.1,0,0,1,1.254,2.443,11.559,11.559,0,0,1,.592,3.921c-.005.563-.021,1.127,0,1.69a8.482,8.482,0,0,1-.315,2.734,11,11,0,0,1-.561,1.376,6.729,6.729,0,0,1-.772,1.227,6.83,6.83,0,0,1-1.3,1.341c-.323.255-.333.488.008.727a9.176,9.176,0,0,1,2.192,2.227,8.2,8.2,0,0,1,1.19,2.512,8.886,8.886,0,0,1,.313,2.656c-.02,1.19-.013,2.381-.08,3.568a7.323,7.323,0,0,1-.5,2.161,10.517,10.517,0,0,1-.51,1.237,12.425,12.425,0,0,1-.836,1.322,8.345,8.345,0,0,1-1.579,1.661,10.231,10.231,0,0,1-2.028,1.3,12.857,12.857,0,0,1-1.931.733,13.245,13.245,0,0,1-2.534.423c-.636.059-1.279.078-1.918.079q-5.189.009-10.377,0a4.261,4.261,0,0,1-.5-.016.889.889,0,0,1-.837-.767,2.58,2.58,0,0,1-.033-.5q0-7.2,0-14.4Zm7.982,4.146h0q0,1.516,0,3.033c0,.525,0,1.049,0,1.574s.144.656.667.658c.436,0,.871,0,1.306,0,.833,0,1.666.013,2.5-.016a3.09,3.09,0,0,0,2.195-.956,2.943,2.943,0,0,0,.854-2c.026-1.5.041-3-.012-4.49a2.991,2.991,0,0,0-1.109-2.2,2.917,2.917,0,0,0-1.892-.736c-1.075-.021-2.151-.023-3.227-.029-.281,0-.564-.008-.844.018-.329.03-.42.144-.435.467,0,.051,0,.1,0,.153q0,2.265,0,4.53m0-14.739h0v2.763c0,.581.138.713.732.711.807,0,1.613-.013,2.419,0a6.6,6.6,0,0,0,1.675-.173,2.576,2.576,0,0,0,1.659-1.311,3.658,3.658,0,0,0,.425-1.848q.014-1.343,0-2.686a6.52,6.52,0,0,0-.086-.877,2.534,2.534,0,0,0-.56-1.2,3.015,3.015,0,0,0-1.9-1.049,5.563,5.563,0,0,0-2.139.023,2.5,2.5,0,0,0-1.958,1.649A3.983,3.983,0,0,0,314.3,10.7q0,1.286,0,2.571" transform="translate(-7271.567 -8379.016)" fill="#333"/><g transform="translate(-7018 -8336.188)"><path d="M204.836,252.37v-2.8c0-.542.1-.641.66-.631.793.014,1.588.013,2.38.048a2.04,2.04,0,0,1,1.592.884,1.748,1.748,0,0,1-.05,2.079c-.285.353-.291.431.018.779a1.77,1.77,0,0,1,.517,1.355,1.722,1.722,0,0,1-.564,1.141,2.127,2.127,0,0,1-1.492.611c-.564,0-1.127,0-1.69.01-.269,0-.538.007-.806.017-.409.015-.564-.123-.565-.534,0-.985,0-1.971,0-2.956Zm2.133,2.766,0,.031a9.332,9.332,0,0,0,1.179-.115,1.119,1.119,0,0,0,.866-1.164,1.176,1.176,0,0,0-.962-1.049c-.638-.031-1.278-.049-1.917-.037-.332.006-.429.13-.438.461q-.018.691,0,1.382c.009.357.129.471.5.489.256.013.512,0,.768,0m-.017-5.45v0h-.346c-.115,0-.231,0-.346,0-.441.014-.543.1-.56.545-.016.422-.011.844,0,1.266s.145.547.564.559.819.005,1.229,0a1.376,1.376,0,0,0,.864-.275c.489-.4.8-.957.243-1.582a1.258,1.258,0,0,0-1.03-.506c-.2.013-.409,0-.614,0" transform="translate(-169.563 -248.884)" fill="#333"/><path d="M410.962,253.091c0,.678,0,1.356,0,2.033,0,.344-.135.491-.443.491a.432.432,0,0,1-.492-.494c0-.435,0-.87.005-1.3a2.586,2.586,0,0,0,0-.268c-.037-.362-.176-.491-.545-.495-.461,0-.922,0-1.382,0-.5,0-1-.007-1.5,0s-.635.148-.64.648,0,.972,0,1.458a.386.386,0,0,1-.268.417.443.443,0,0,1-.524-.122.6.6,0,0,1-.114-.348c-.008-1.138-.013-2.275,0-3.413a4.461,4.461,0,0,1,.1-1.064,2.547,2.547,0,0,1,2.267-1.94,3.219,3.219,0,0,1,2.228.369,2.415,2.415,0,0,1,1.287,2.04c.028.664.005,1.33.005,1.995h.008m-2.956-.75v0c.486,0,.971,0,1.457,0,.458,0,.555-.1.566-.567.005-.23-.013-.46,0-.689a1.869,1.869,0,0,0-1.426-1.647,2.134,2.134,0,0,0-1.885.367,1.7,1.7,0,0,0-.738,1.279c-.01.229-.015.46-.009.689.012.445.128.562.581.569.485.008.971,0,1.457,0" transform="translate(-335.308 -248.634)" fill="#333"/><path d="M5.843,253.1c0,.691,0,1.382,0,2.073,0,.332-.128.482-.4.492a.425.425,0,0,1-.445-.343,1.369,1.369,0,0,1-.011-.268c0-1.19-.01-2.381,0-3.571a2.007,2.007,0,0,0-1.175-1.908,2.271,2.271,0,0,0-1.169-.144,2.057,2.057,0,0,0-1.8,1.915c.044,1.2.01,2.406.009,3.609a2.957,2.957,0,0,1-.008.345c-.027.23-.133.342-.325.365a.436.436,0,0,1-.485-.292A1.239,1.239,0,0,1,0,255.031c0-1.2.015-2.407,0-3.609a2.49,2.49,0,0,1,.908-2.062,2.762,2.762,0,0,1,1.535-.642,3.282,3.282,0,0,1,2.082.362A2.316,2.316,0,0,1,5.833,251.1c.006.665,0,1.331,0,2h.009" transform="translate(0 -248.68)" fill="#333"/><path d="M241.675,264.153c-.589,0-1.178,0-1.768,0-.19,0-.421-.027-.5.19-.072.194.111.322.226.455a2.055,2.055,0,0,0,1.026.641,1.429,1.429,0,0,0,1.082-.071,1.408,1.408,0,0,1,.506-.154.345.345,0,0,1,.392.243.326.326,0,0,1-.215.4,3.977,3.977,0,0,1-1.016.327,2.9,2.9,0,0,1-2.415-.857,2.171,2.171,0,0,1-.51-2.344,2.365,2.365,0,0,1,1.094-1.246,3.017,3.017,0,0,1,2.335-.352,2.6,2.6,0,0,1,1.907,1.461,1.888,1.888,0,0,1,.241.8c-.006.386-.082.484-.463.5-.281.013-.563,0-.845,0h-1.076Zm-.508-.746v0c.46,0,.921.011,1.381-.007a.516.516,0,0,0,.358-.158c.1-.133.018-.3-.09-.418a2.077,2.077,0,0,0-.742-.593,2.15,2.15,0,0,0-2.517.563.4.4,0,0,0-.1.457c.068.151.215.16.362.159.448,0,.9,0,1.343,0" transform="translate(-197.303 -259.117)" fill="#333"/><path d="M148.779,264.5q0,.479,0,.958c0,.478-.369.728-.759.447a.8.8,0,0,0-.9-.049,3.2,3.2,0,0,1-3.137-.362,2.327,2.327,0,0,1-.785-2.668,2.666,2.666,0,0,1,1.022-1.162,3.143,3.143,0,0,1,2.477-.358,2.605,2.605,0,0,1,2.009,1.86,4.765,4.765,0,0,1,.066,1.1c0,.076,0,.153,0,.23Zm-2.874.89a2.047,2.047,0,0,0,1.7-.885,1.512,1.512,0,0,0,.009-1.687,2.113,2.113,0,0,0-2.9-.539,1.557,1.557,0,0,0-.27,2.545,2.123,2.123,0,0,0,1.464.565" transform="translate(-118.416 -259.035)" fill="#333"/><path d="M43.912,264.593c0,.294,0,.589,0,.883,0,.2,0,.4-.207.5a.5.5,0,0,1-.573-.081c-.029-.024-.06-.048-.091-.07a.523.523,0,0,0-.575-.027,3.231,3.231,0,0,1-3.716-.624,2.308,2.308,0,0,1,.012-2.976,3.151,3.151,0,0,1,3.178-.838,2.615,2.615,0,0,1,1.773,1.419,2.675,2.675,0,0,1,.182.893c.03.3.007.614.007.921h.01m-2.665.825a1.987,1.987,0,0,0,1.424-.756,1.587,1.587,0,0,0,.042-1.894,2.125,2.125,0,0,0-3.359.029,1.336,1.336,0,0,0-.2,1.44,2.137,2.137,0,0,0,2.092,1.181" transform="translate(-31.633 -259.068)" fill="#333"/><path d="M575.813,264.432c0,.345,0,.69,0,1.036,0,.5-.293.671-.729.438-.079-.042-.15-.1-.228-.143a.464.464,0,0,0-.472,0,3.1,3.1,0,0,1-3.4-.326,2.119,2.119,0,0,1-.837-2.31,2.5,2.5,0,0,1,1.163-1.467,3.093,3.093,0,0,1,2.48-.337,2.675,2.675,0,0,1,1.856,1.483,1.512,1.512,0,0,1,.128.555c.02.357.006.716.006,1.074h.031m-2.844,1.01a4.635,4.635,0,0,0,.946-.276,1.583,1.583,0,0,0,.82-2.234,1.827,1.827,0,0,0-1.289-.941,2.068,2.068,0,0,0-2.13.723,1.544,1.544,0,0,0-.137,1.718,2.222,2.222,0,0,0,1.791,1.009" transform="translate(-471.913 -259.041)" fill="#333"/><path d="M279.777,264.557c0,.332,0,.665,0,1,0,.2-.025.393-.229.489a.529.529,0,0,1-.546-.061,2.843,2.843,0,0,0-.259-.164.361.361,0,0,0-.4.019,2.573,2.573,0,0,1-1.546.352,2.914,2.914,0,0,1-2.18-.972,2.093,2.093,0,0,1-.365-2.35,2.757,2.757,0,0,1,2.5-1.551,2.94,2.94,0,0,1,2.39.915,1.913,1.913,0,0,1,.6,1.366c0,.32,0,.639,0,.959h.03m-2.869.921a1.89,1.89,0,0,0,1.558-.7,1.458,1.458,0,0,0,.111-1.939,2.1,2.1,0,0,0-3.37.048,1.349,1.349,0,0,0-.184,1.38,1.976,1.976,0,0,0,1.885,1.207" transform="translate(-226.853 -259.13)" fill="#333"/><path d="M366.783,264.568c0,.755.005,1.51,0,2.265a1.735,1.735,0,0,1-1.062,1.519,2.64,2.64,0,0,1-.687.242.63.63,0,0,1-.4-.035c-.285-.145-.282-.389,0-.55a4.51,4.51,0,0,1,.554-.263,1.112,1.112,0,0,0,.719-.92c.061-.4-.155-.6-.536-.471a2.4,2.4,0,0,1-1.582-.024,1.816,1.816,0,0,1-1.337-1.682c-.012-.845-.005-1.69,0-2.534,0-.3.1-.4.328-.437.342-.05.5.078.506.442q.014,1.152,0,2.3a1.267,1.267,0,0,0,.27.818,1.319,1.319,0,0,0,1.435.473,1.19,1.19,0,0,0,.922-1.178c.016-.7,0-1.408,0-2.112a2.676,2.676,0,0,1,.013-.383.405.405,0,0,1,.491-.368c.256.017.35.1.354.4.011.832,0,1.664,0,2.5h0" transform="translate(-300.033 -259.423)" fill="#333"/><path d="M498.984,261.356a2.823,2.823,0,0,1,2.151.861,2.264,2.264,0,0,1-.432,3.5,3.246,3.246,0,0,1-2.828.329,2.51,2.51,0,0,1-1.754-1.819,2.067,2.067,0,0,1,.052-1.054,2.847,2.847,0,0,1,2.811-1.816m-2.05,2.407a3,3,0,0,0,.225.758,2.07,2.07,0,0,0,3.289.364,1.418,1.418,0,0,0-.009-2.2,2.164,2.164,0,0,0-2.714-.243,1.666,1.666,0,0,0-.791,1.323" transform="translate(-410.655 -259.16)" fill="#333"/><path d="M640.415,261.337a2.9,2.9,0,0,1,2.465,1.106,2.18,2.18,0,0,1-.511,3.171,3.132,3.132,0,0,1-3.108.361,2.3,2.3,0,0,1-1.39-3.214,2.1,2.1,0,0,1,.888-.933,2.626,2.626,0,0,1,1.656-.491m.059.732a1.894,1.894,0,0,0-1.99,1.824,1.515,1.515,0,0,0,.538,1.023,2.093,2.093,0,0,0,3.268-.424,1.318,1.318,0,0,0,0-1.425,1.916,1.916,0,0,0-1.814-1" transform="translate(-527.852 -259.142)" fill="#333"/><path d="M674.6,264.508c0-.282,0-.563,0-.845a2.269,2.269,0,0,1,1.112-1.905,3.044,3.044,0,0,1,2.539-.425,2.541,2.541,0,0,1,2.1,2.534c-.009.563,0,1.126,0,1.689a.421.421,0,0,1-.432.477c-.324.012-.469-.122-.472-.457,0-.474,0-.947,0-1.421,0-.115,0-.23,0-.346a1.773,1.773,0,0,0-1.261-1.727,2.12,2.12,0,0,0-2.61,1.049,1.594,1.594,0,0,0-.109.636c-.016.537-.007,1.075-.008,1.613,0,.064,0,.128,0,.192-.01.336-.113.464-.371.475a.474.474,0,0,1-.5-.5c.019-.345,0-.691,0-1.037Z" transform="translate(-558.431 -259.058)" fill="#333"/><path d="M471.594,266.261c-.269,0-.538,0-.807,0a1.6,1.6,0,0,1-.268-.018.3.3,0,0,1-.276-.276.306.306,0,0,1,.209-.333,1.348,1.348,0,0,1,.413-.062c.435-.007.871.006,1.307-.005a1.386,1.386,0,0,0,.485-.09.648.648,0,0,0,.374-.655.587.587,0,0,0-.556-.5c-.254-.026-.513-.005-.767-.026a1.749,1.749,0,0,1-1.333-.651,1.257,1.257,0,0,1,.206-1.725,1.5,1.5,0,0,1,1.011-.4c.6.007,1.2,0,1.806.013.255.007.343.116.346.321a.344.344,0,0,1-.341.384,2.716,2.716,0,0,1-.345.011c-.41,0-.82.013-1.23,0a.879.879,0,0,0-.71.314.444.444,0,0,0,.021.676,1,1,0,0,0,.741.259,2.9,2.9,0,0,1,1.1.134,1.337,1.337,0,0,1,.732,1.977,1.246,1.246,0,0,1-1.116.642c-.333.011-.666,0-1,0v.01" transform="translate(-389.171 -259.303)" fill="#333"/><path d="M445.486,266.246c-.269,0-.538,0-.807,0-.367,0-.566-.114-.574-.316-.008-.22.228-.378.57-.379.435,0,.871.007,1.306,0a1.572,1.572,0,0,0,.416-.05.616.616,0,0,0,.45-.771.438.438,0,0,0-.365-.394,2.872,2.872,0,0,0-.647-.052,2.1,2.1,0,0,1-1.311-.364,1.249,1.249,0,0,1-.4-1.632,1.378,1.378,0,0,1,1.2-.768c.614-.021,1.229-.02,1.844-.021.177,0,.355.056.375.254a.525.525,0,0,1-.118.374.546.546,0,0,1-.353.1c-.435.01-.871-.009-1.306.007a1.615,1.615,0,0,0-.556.115.531.531,0,0,0-.353.542.5.5,0,0,0,.406.494c.2.047.4.059.6.089a7.249,7.249,0,0,1,.978.156,1.321,1.321,0,0,1-.137,2.551,11.2,11.2,0,0,1-1.223.086c0-.007,0-.014,0-.022" transform="translate(-367.524 -259.285)" fill="#333"/><path d="M311.464,263.42c0-.448-.009-.9,0-1.344.009-.355.225-.5.565-.407.2.056.281.163.286.439.008.461,0,.922,0,1.382,0,.346,0,.691,0,1.037a1.212,1.212,0,0,0,1.084,1.2,1.3,1.3,0,0,0,1.476-.779,1.41,1.41,0,0,0,.077-.526c.008-.665,0-1.331,0-2a3.7,3.7,0,0,1,.011-.383c.032-.3.16-.412.45-.4.261.013.369.122.372.429.007.87.016,1.741,0,2.611a1.716,1.716,0,0,1-1.168,1.566,2.417,2.417,0,0,1-1.981.006,1.911,1.911,0,0,1-1.187-1.689c.023-.382,0-.768,0-1.152Z" transform="translate(-257.827 -259.401)" fill="#333"/><path d="M100.154,263.489c0,.384-.011.768,0,1.152a1.685,1.685,0,0,1-1.129,1.623,2.3,2.3,0,0,1-2.083-.016,1.726,1.726,0,0,1-1.106-1.572q-.006-1.287.009-2.573c0-.31.085-.4.33-.422.313-.033.463.08.478.4.017.37.01.742.011,1.113,0,.423,0,.845,0,1.267a1.3,1.3,0,0,0,1.315,1.317,1.276,1.276,0,0,0,1.334-1.293c.012-.678,0-1.357,0-2.035a3.27,3.27,0,0,1,.011-.383.369.369,0,0,1,.394-.383c.3-.024.428.074.436.387.012.473,0,.947,0,1.421h-.01" transform="translate(-79.334 -259.43)" fill="#333"/><path d="M607.717,257.681q0-1,0-1.995c0-.166-.017-.342.175-.429a.607.607,0,0,1,.589.025.412.412,0,0,1,.142.25,3.316,3.316,0,0,1,.019.382c.029.308.128.41.434.42.358.011.717,0,1.075.008.248.009.369.132.378.344a.353.353,0,0,1-.378.388c-.306.016-.614,0-.921.006-.44.005-.583.132-.591.565-.012.652-.011,1.3,0,1.956a.69.69,0,0,0,.365.7.565.565,0,0,0,.663-.14,1.971,1.971,0,0,0,.222-.262.566.566,0,0,1,.518-.188.322.322,0,0,1,.249.522,1.582,1.582,0,0,1-2.037.741,1.354,1.354,0,0,1-.892-1.226c-.009-.69,0-1.381,0-2.071Z" transform="translate(-503.074 -254.064)" fill="#333"/><path d="M76.6,258.689c0,.269-.006.537,0,.806a2.04,2.04,0,0,0,.054.455.554.554,0,0,0,.954.281c.074-.068.118-.171.2-.234a1.321,1.321,0,0,1,.379-.238.413.413,0,0,1,.441.167c.119.134.041.259-.028.385a1.58,1.58,0,0,1-2.709.12,1.235,1.235,0,0,1-.158-.654c-.016-1.164-.008-2.327-.008-3.491,0-.217-.008-.435,0-.652.015-.276.168-.4.456-.393a.375.375,0,0,1,.419.391c.067.745.067.745.824.748.23,0,.461-.01.691,0,.266.01.389.135.389.37s-.128.365-.39.373c-.32.011-.64-.005-.96,0-.388.008-.529.138-.548.532-.017.344,0,.69,0,1.036h0" transform="translate(-62.681 -254.103)" fill="#333"/><path d="M342.3,257.733c0-.7-.006-1.407,0-2.111,0-.334.165-.466.484-.431a.368.368,0,0,1,.372.4c.054.717.08.741.8.741.243,0,.487-.008.73,0,.29.014.42.147.409.394-.01.223-.13.332-.42.343-.307.011-.615,0-.922,0-.406.006-.588.177-.594.583-.01.627-.012,1.254,0,1.88a1.28,1.28,0,0,0,.133.512.515.515,0,0,0,.835.17c.088-.072.157-.168.239-.248a1.36,1.36,0,0,1,.23-.2.369.369,0,0,1,.464,0,.359.359,0,0,1,.09.454,1.388,1.388,0,0,1-1.11.84,1.585,1.585,0,0,1-1.586-.642,1.122,1.122,0,0,1-.152-.617c-.018-.69-.007-1.382-.007-2.072" transform="translate(-283.355 -254.057)" fill="#333"/><path d="M536.025,261.27a1.863,1.863,0,0,1,1.311.367c.11.091.234.171.184.343a.431.431,0,0,1-.412.286.878.878,0,0,1-.362-.11,1.93,1.93,0,0,0-2.2.462,1.487,1.487,0,0,0-.319,1.667,1.947,1.947,0,0,0,2.342,1.041,2.232,2.232,0,0,1,.393-.151.659.659,0,0,1,.367.029.265.265,0,0,1,.082.484,1.228,1.228,0,0,1-.417.259,2.932,2.932,0,0,1-3.295-.911,2.025,2.025,0,0,1-.3-2.192,2.89,2.89,0,0,1,2.63-1.573" transform="translate(-441.389 -259.089)" fill="#333"/><path d="M180.436,251.967q0-1.226,0-2.453a2.035,2.035,0,0,1,.011-.306.373.373,0,0,1,.429-.341.349.349,0,0,1,.381.345,2.1,2.1,0,0,1,.007.268c0,1.571,0,3.143-.006,4.714a.881.881,0,0,0,.487.915.924.924,0,0,1,.231.2.279.279,0,0,1,.07.349.319.319,0,0,1-.346.191c-.53-.1-1.222-.458-1.239-1.16-.008-.319-.019-.638-.021-.957,0-.588,0-1.175,0-1.763h0" transform="translate(-149.367 -248.827)" fill="#333"/><path d="M125.017,264.764c0-.23,0-.46,0-.69a2.266,2.266,0,0,1,1.422-2.2,2.673,2.673,0,0,1,1.047-.346,1.215,1.215,0,0,1,.266,0c.142.025.279.075.3.245a.333.333,0,0,1-.2.376,2.461,2.461,0,0,1-.4.127,2.333,2.333,0,0,0-.951.471,1.8,1.8,0,0,0-.659,1.522c.018.485.009.971,0,1.456a.853.853,0,0,1-.057.333.43.43,0,0,1-.489.215.375.375,0,0,1-.3-.395c-.011-.37,0-.741,0-1.111Z" transform="translate(-103.478 -259.299)" fill="#333"/><path d="M562.1,264.085c0-.651-.008-1.3,0-1.953a.4.4,0,0,1,.529-.428.378.378,0,0,1,.35.349,2.526,2.526,0,0,1,.012.268q0,1.781,0,3.562c0,.366-.217.579-.532.531-.256-.039-.37-.185-.371-.489,0-.613,0-1.226,0-1.838Z" transform="translate(-465.304 -259.444)" fill="#333"/><path d="M630.059,264.109c0,.626.005,1.253,0,1.879,0,.342-.2.5-.516.445a.412.412,0,0,1-.357-.351,1.718,1.718,0,0,1-.01-.306q0-1.611,0-3.222a3.485,3.485,0,0,1,.01-.421.4.4,0,0,1,.47-.392c.266.012.387.118.4.413.012.472,0,.946,0,1.419,0,.179,0,.358,0,.537h.017" transform="translate(-520.835 -259.483)" fill="#333"/><path d="M562.073,249.383c0-.342.132-.505.425-.514a.454.454,0,0,1,.489.507c0,.351-.16.548-.443.558-.326.012-.467-.154-.47-.551" transform="translate(-465.29 -248.828)" fill="#333"/><path d="M630.076,249.365c0,.4-.135.572-.451.569-.282,0-.429-.189-.436-.555a.438.438,0,0,1,.444-.506c.3,0,.442.155.443.491" transform="translate(-520.85 -248.832)" fill="#333"/></g></g></svg>